<svg width="13" height="13" viewBox="0 0 13 13" fill="none" xmlns="http://www.w3.org/2000/svg">
<g clip-path="url(#clip0_4490_38330)">
<path d="M5.08125 6.55805C5.06625 6.55805 5.05625 6.55805 5.04125 6.55805C5.01625 6.55305 4.98125 6.55305 4.95125 6.55805C3.50125 6.51305 2.40625 5.37305 2.40625 3.96805C2.40625 2.53805 3.57125 1.37305 5.00125 1.37305C6.43125 1.37305 7.59625 2.53805 7.59625 3.96805C7.59125 5.37305 6.49125 6.51305 5.09625 6.55805C5.09125 6.55805 5.08625 6.55805 5.08125 6.55805ZM5.00125 2.12305C3.98625 2.12305 3.15625 2.95305 3.15625 3.96805C3.15625 4.96805 3.93625 5.77305 4.93125 5.80805C4.96125 5.80305 5.02625 5.80305 5.09125 5.80805C6.07125 5.76305 6.84125 4.95805 6.84625 3.96805C6.84625 2.95305 6.01625 2.12305 5.00125 2.12305Z" fill="black"/>
<path d="M8.77115 6.62305C8.75615 6.62305 8.74115 6.62305 8.72615 6.61805C8.52115 6.63805 8.31115 6.49305 8.29115 6.28805C8.27115 6.08305 8.39615 5.89805 8.60115 5.87305C8.66115 5.86805 8.72615 5.86805 8.78115 5.86805C9.51115 5.82805 10.0812 5.22805 10.0812 4.49305C10.0812 3.73305 9.46615 3.11805 8.70615 3.11805C8.50115 3.12305 8.33115 2.95305 8.33115 2.74805C8.33115 2.54305 8.50115 2.37305 8.70615 2.37305C9.87615 2.37305 10.8312 3.32805 10.8312 4.49805C10.8312 5.64805 9.93115 6.57805 8.78615 6.62305C8.78115 6.62305 8.77615 6.62305 8.77115 6.62305Z" fill="black"/>
<path d="M5.08188 12.023C4.10188 12.023 3.11688 11.773 2.37188 11.273C1.67688 10.813 1.29688 10.183 1.29688 9.49805C1.29688 8.81305 1.67688 8.17805 2.37188 7.71305C3.87188 6.71805 6.30188 6.71805 7.79187 7.71305C8.48187 8.17305 8.86687 8.80305 8.86687 9.48805C8.86687 10.173 8.48688 10.808 7.79187 11.273C7.04187 11.773 6.06188 12.023 5.08188 12.023ZM2.78688 8.34305C2.30687 8.66305 2.04687 9.07305 2.04687 9.50305C2.04687 9.92805 2.31187 10.338 2.78688 10.653C4.03188 11.488 6.13188 11.488 7.37687 10.653C7.85687 10.333 8.11687 9.92305 8.11687 9.49305C8.11687 9.06805 7.85187 8.65805 7.37687 8.34305C6.13188 7.51305 4.03188 7.51305 2.78688 8.34305Z" fill="black"/>
<path d="M9.66911 11.1231C9.49411 11.1231 9.33911 11.0031 9.30411 10.8231C9.26411 10.6181 9.39411 10.4231 9.59411 10.3781C9.90911 10.3131 10.1991 10.1881 10.4241 10.0131C10.7091 9.79806 10.8641 9.52806 10.8641 9.24306C10.8641 8.95806 10.7091 8.68806 10.4291 8.47806C10.2091 8.30806 9.93411 8.18806 9.60911 8.11306C9.40911 8.06806 9.27911 7.86806 9.32411 7.66306C9.36911 7.46306 9.56911 7.33306 9.77411 7.37806C10.2041 7.47306 10.5791 7.64306 10.8841 7.87806C11.3491 8.22806 11.6141 8.72306 11.6141 9.24306C11.6141 9.76306 11.3441 10.2581 10.8791 10.6131C10.5691 10.8531 10.1791 11.0281 9.74911 11.1131C9.71911 11.1231 9.69411 11.1231 9.66911 11.1231Z" fill="black"/>
</g>
<defs>
<clipPath id="clip0_4490_38330">
<rect width="12" height="12" fill="white" transform="translate(0.5 0.748047)"/>
</clipPath>
</defs>
</svg>
